<?xml version="1.0" encoding="UTF-8"?>
<svg id="Layer_2" data-name="Layer 2" xmlns="http://www.w3.org/2000/svg" viewBox="0 0 256.16 64.91">
  <defs>
    <style>
      .cls-1 {
        fill: #eff3f4;
      }
    </style>
  </defs>
  <g id="Layer_1-2" data-name="Layer 1">
    <g>
      <path class="cls-1" d="M113.56,11.08v42.39c0,6.56.35,10.55,6.38,10.55v.53h-20.57v-.53c6.03,0,6.38-3.99,6.38-10.55V11.08c0-6.56-.35-10.55-6.38-10.55v-.53h20.57v.53c-6.03,0-6.38,3.99-6.38,10.55ZM134.13,14.45l-11.88,13.57c16.49,23.06,25.54,34.94,30.42,36v.53c-3.01.35-5.59.35-7.54.35-6.92,0-10.91-6.3-29-32.28l16.67-19.24c3.99-4.52,5.85-7.18,5.85-9.49s-1.77-3.19-3.81-3.37v-.53h16.23v.53c-2.57.44-8.25,3.99-16.94,13.92Z"/>
      <path class="cls-1" d="M168.59,11.08v42.39c0,6.56.35,10.55,6.38,10.55v.53h-20.57v-.53c6.03,0,6.38-3.99,6.38-10.55V11.08c0-6.56-.35-10.55-6.38-10.55v-.53h20.57v.53c-6.03,0-6.38,3.99-6.38,10.55ZM189.16,14.45l-11.88,13.57c16.49,23.06,25.54,34.94,30.42,36v.53c-3.01.35-5.59.35-7.54.35-6.92,0-10.91-6.3-29-32.28l16.67-19.24c3.99-4.52,5.85-7.18,5.85-9.49s-1.77-3.19-3.81-3.37v-.53h16.23v.53c-2.57.44-8.25,3.99-16.94,13.92Z"/>
      <path class="cls-1" d="M98.84,49.66h.53l-2.04,14.9h-44.69v-.53c6.03,0,6.38-3.99,6.38-10.55V11.08c0-6.56-.35-10.55-6.38-10.55v-.53h43.36l1.15,13.3h-.53c-4.52-10.11-7.45-11.88-17.11-11.88h-12.68v28.82h9.93c7.98,0,9.75-2.13,11.26-8.69h.53v19.42h-.53c-1.51-6.3-3.28-9.31-11.26-9.31h-9.93v27.31c0,2.66.8,4.17,3.55,4.17h10.46c9.4,0,12.77-1.6,18-13.48Z"/>
      <path class="cls-1" d="M255.63,49.66h.53l-2.04,14.9h-44.69v-.53c6.03,0,6.38-3.99,6.38-10.55V11.08c0-6.56-.35-10.55-6.38-10.55v-.53h43.36l1.15,13.3h-.53c-4.52-10.11-7.45-11.88-17.11-11.88h-12.68v28.82h9.93c7.98,0,9.75-2.13,11.26-8.69h.53v19.42h-.53c-1.51-6.3-3.28-9.31-11.26-9.31h-9.93v27.31c0,2.66.8,4.17,3.55,4.17h10.46c9.4,0,12.77-1.6,18-13.48Z"/>
      <path class="cls-1" d="M35.74,42.65c8.6,16.58,10.46,19.77,15.16,21.37v.53c-1.15.18-4.88.35-7.27.35-5.85,0-7.45-3.19-18.44-26.69-1.68-3.37-3.55-3.99-6.38-3.99h-4.61v19.24c0,6.56.27,10.55,6.3,10.55v.53H0v-.53c6.03,0,6.38-3.99,6.38-10.55V11.08C6.38,4.52,6.03.53,0,.53v-.53h21.99c13.66,0,21.55,6.74,21.55,17.03,0,8.78-6.74,14.19-14.45,16.32v.18c2.57,1.6,4.7,5.32,6.65,9.13ZM14.19,4.61v28.2h6.65c9.67,0,14.45-5.59,14.45-15.25S30.86,1.42,20.93,1.42h-3.37c-2.13,0-3.37,1.06-3.37,3.19Z"/>
    </g>
  </g>
</svg>