<?xml version="1.0" encoding="UTF-8"?>
<svg id="Layer_2" data-name="Layer 2" xmlns="http://www.w3.org/2000/svg" viewBox="0 0 256.16 76.41">
  <defs>
    <style>
      .cls-1 {
        fill: #0a2c2f;
      }

      .cls-2 {
        fill: #eff3f4;
      }
    </style>
  </defs>
  <g id="Layer_1-2" data-name="Layer 1">
    <g>
      <rect class="cls-1" width="256.16" height="76.41"/>
      <g>
        <path class="cls-2" d="M119.92,26.19v23.83c0,3.69.2,5.93,3.59,5.93v.3h-11.56v-.3c3.39,0,3.59-2.24,3.59-5.93v-23.83c0-3.69-.2-5.93-3.59-5.93v-.3h11.56v.3c-3.39,0-3.59,2.24-3.59,5.93ZM131.48,28.09l-6.68,7.63c9.27,12.96,14.36,19.64,17.1,20.24v.3c-1.69.2-3.14.2-4.24.2-3.89,0-6.13-3.54-16.3-18.14l9.37-10.82c2.24-2.54,3.29-4.04,3.29-5.33s-1-1.79-2.14-1.89v-.3h9.12v.3c-1.45.25-4.64,2.24-9.52,7.83Z"/>
        <path class="cls-2" d="M150.85,26.19v23.83c0,3.69.2,5.93,3.59,5.93v.3h-11.56v-.3c3.39,0,3.59-2.24,3.59-5.93v-23.83c0-3.69-.2-5.93-3.59-5.93v-.3h11.56v.3c-3.39,0-3.59,2.24-3.59,5.93ZM162.42,28.09l-6.68,7.63c9.27,12.96,14.36,19.64,17.1,20.24v.3c-1.69.2-3.14.2-4.24.2-3.89,0-6.13-3.54-16.3-18.14l9.37-10.82c2.24-2.54,3.29-4.04,3.29-5.33s-1-1.79-2.14-1.89v-.3h9.12v.3c-1.45.25-4.64,2.24-9.52,7.83Z"/>
        <path class="cls-2" d="M111.64,47.88h.3l-1.15,8.37h-25.12v-.3c3.39,0,3.59-2.24,3.59-5.93v-23.83c0-3.69-.2-5.93-3.59-5.93v-.3h24.38l.65,7.48h-.3c-2.54-5.68-4.19-6.68-9.62-6.68h-7.13v16.2h5.58c4.49,0,5.48-1.2,6.33-4.89h.3v10.92h-.3c-.85-3.54-1.84-5.23-6.33-5.23h-5.58v15.35c0,1.5.45,2.34,1.99,2.34h5.88c5.28,0,7.18-.9,10.12-7.58Z"/>
        <path class="cls-2" d="M199.78,47.88h.3l-1.15,8.37h-25.12v-.3c3.39,0,3.59-2.24,3.59-5.93v-23.83c0-3.69-.2-5.93-3.59-5.93v-.3h24.38l.65,7.48h-.3c-2.54-5.68-4.19-6.68-9.62-6.68h-7.13v16.2h5.58c4.49,0,5.48-1.2,6.33-4.89h.3v10.92h-.3c-.85-3.54-1.84-5.23-6.33-5.23h-5.58v15.35c0,1.5.45,2.34,1.99,2.34h5.88c5.28,0,7.18-.9,10.12-7.58Z"/>
        <path class="cls-2" d="M76.17,43.94c4.84,9.32,5.88,11.12,8.52,12.01v.3c-.65.1-2.74.2-4.09.2-3.29,0-4.19-1.79-10.37-15-.95-1.89-1.99-2.24-3.59-2.24h-2.59v10.82c0,3.69.15,5.93,3.54,5.93v.3h-11.51v-.3c3.39,0,3.59-2.24,3.59-5.93v-23.83c0-3.69-.2-5.93-3.59-5.93v-.3h12.36c7.68,0,12.11,3.79,12.11,9.57,0,4.93-3.79,7.98-8.13,9.17v.1c1.45.9,2.64,2.99,3.74,5.13ZM64.06,22.55v15.85h3.74c5.43,0,8.13-3.14,8.13-8.57s-2.49-9.07-8.08-9.07h-1.89c-1.2,0-1.89.6-1.89,1.79Z"/>
      </g>
    </g>
  </g>
</svg>